Coordinates
version=1
nRows=7
nColumns=32
inDegrees=yes

Units are S.I. units (second, meters, Newtons, ...)
If the header above contains a line with 'inDegrees', this indicates whether rotational values are in degrees (yes) or radians (no).

endheader
time	pelvis_tilt	pelvis_list	pelvis_rotation	pelvis_tx	pelvis_ty	pelvis_tz	hip_flexion_r	hip_adduction_r	hip_rotation_r	knee_angle_r	knee_adduction_r	med_cond_adduction_r	lat_cond_adduction_r	patella_r_constrained_knee_angle	hip_flexion_l	hip_adduction_l	hip_rotation_l	knee_angle_l	knee_adduction_l	med_cond_adduction_l	lat_cond_adduction_l	patella_l_constrained_knee_angle	lumbar_extension	lumbar_bending	lumbar_rotation	ankle_angle_r	subtalar_angle_r	mtp_angle_r	ankle_angle_l	subtalar_angle_l	mtp_angle_l
      0.07000000	    -10.85157575	     -3.38354964	    -13.58914623	     -1.29187548	      0.83944408	      0.18871743	     -2.31816496	      3.36235598	      6.06686765	    -16.78130276	      3.26651018	      0.00000000	      0.00000000	     -0.29288899	     36.96259257	     -6.44661562	     -3.01026502	     -5.41494547	     -0.18831424	      0.00000000	      0.00000000	     -0.09450863	     -8.19637915	      8.51941152	     12.06832670	      8.78563356	     14.85733948	     -0.00000000	     -1.96818195	      0.55846251	      0.00000000
      0.07500000	    -10.65828840	     -3.28040445	    -13.45539413	     -1.28397339	      0.83940206	      0.18852030	     -2.69894725	      3.03097415	      6.29122736	    -17.27895639	      3.49082504	      0.00000000	      0.00000000	     -0.30157468	     36.81377519	     -6.11281439	     -2.34395008	     -6.22770414	      0.04661808	     -0.00000000	     -0.00000000	     -0.10869394	     -8.24025096	      8.28281267	     12.09122267	      7.34723546	     14.05342903	      0.00000000	     -3.03296592	      0.02772996	      0.00000000
      0.08000000	    -10.63621908	     -3.06443765	    -13.34241361	     -1.27600313	      0.83910203	      0.18833469	     -2.71022767	      2.63980697	      6.23812579	    -18.13587757	      3.55352629	      0.00000000	      0.00000000	     -0.31653078	     36.95329200	     -5.69724623	     -2.01012727	     -7.16199152	      0.17190919	     -0.00000000	     -0.00000000	     -0.12500033	     -7.88029676	      7.94863176	     11.95488199	      7.05776109	     14.74816322	      0.00000000	     -3.88561328	      0.27557190	      0.00000000
      0.08500000	    -10.54761694	     -2.90408022	    -13.19889523	     -1.26813697	      0.83898771	      0.18810146	     -2.78370406	      2.30398964	      6.30927962	    -18.94829707	      3.65734670	     -0.00000000	     -0.00000000	     -0.33071017	     37.02761926	     -5.29482484	     -1.75332620	     -8.06054076	      0.21659226	      0.00000000	      0.00000000	     -0.14068298	     -7.75352288	      7.64513494	     11.94899573	      6.18884193	     14.65234307	      0.00000000	     -4.61851759	      1.09733582	     -0.00000000
      0.09000000	    -10.52152135	     -2.76500025	    -13.02221484	     -1.26027567	      0.83886676	      0.18782703	     -2.75162780	      1.99476609	      6.45416524	    -19.80729510	      3.84721701	     -0.00000000	     -0.00000000	     -0.34570252	     37.16768852	     -4.91985597	     -1.48284849	     -8.90577943	      0.27448531	     -0.00000000	     -0.00000000	     -0.15543517	     -7.53211188	      7.40449061	     11.76940232	      5.06589807	     14.48823729	      0.00000000	     -5.68743419	      1.54845744	      0.00000000
      0.09500000	    -10.46729314	     -2.66511539	    -12.84854716	     -1.25251657	      0.83890809	      0.18755532	     -2.71444629	      1.73233760	      6.72406195	    -20.65717241	      4.10052151	     -0.00000000	     -0.00000000	     -0.36053567	     37.26566497	     -4.58908591	     -1.24401297	     -9.70869167	      0.31938043	      0.00000000	      0.00000000	     -0.16944864	     -7.38533605	      7.20910275	     11.80041691	      3.23629003	     13.89496716	      0.00000000	     -6.86298364	      1.85516962	      0.00000000
      0.10000000	    -10.47145509	     -2.45468117	    -12.61119933	     -1.24475461	      0.83881491	      0.18722256	     -2.42747673	      1.37013077	      6.64796107	    -21.82565153	      4.23405408	     -0.00000000	     -0.00000000	     -0.38092948	     37.47526799	     -4.10627047	     -1.12428096	    -10.53178258	      0.25377204	      0.00000000	      0.00000000	     -0.18381428	     -7.10246544	      6.87873940	     11.51368863	      2.29135584	     14.27617394	      0.00000000	     -7.71372444	      3.03511426	     -0.00000000
